<svg id="Ebene_1" xmlns="http://www.w3.org/2000/svg" width="141.7" height="70.7" viewBox="0 0 141.7 70.7"><style><![CDATA[
	.st0{fill:#C4C4C4;}
]]></style><path class="st0" d="M14.7 61.4h-.2c-2.8 0-5.2-1.9-5.2-5.2 0-2 3-2 3 0 0 1.4.9 2.2 2.2 2.2h.2c1.3 0 2.3-.7 2.3-2 0-3.2-7.5-3.5-7.5-8.3v-.5c0-2.8 2.8-4.4 5-4.4h.2c2.7 0 5 1.7 5 4.1 0 1.9-3 2-3 .1 0-.7-.8-1.2-2.1-1.2h-.2c-1.1 0-2 .6-2 1.6v.4c0 2 7.5 2.9 7.5 8.3.1 2.9-2.2 4.9-5.2 4.9zM27.7 61.4h-.2c-2.8 0-5.2-2.2-5.2-5.1v-8.1c0-2.9 2.3-5 5.2-5h.2c2.6 0 4.8 1.8 5.1 4.3v.3c0 .9-.8 1.4-1.5 1.4s-1.3-.4-1.4-1.3c-.2-1.1-1.1-1.8-2.2-1.8h-.2c-1.2 0-2.2.9-2.2 2.1v8.1c0 1.2 1 2.1 2.2 2.1h.2c1.1 0 2-.7 2.2-1.8.1-.9.8-1.3 1.4-1.3.8 0 1.5.5 1.5 1.4v.3c-.3 2.6-2.5 4.4-5.1 4.4zM40.4 61.4h-.2c-2.8 0-5.2-2.2-5.2-5.1v-8c0-2.9 2.3-5.1 5.2-5.1h.2c2.9 0 5.2 2.2 5.2 5.1v8c-.1 2.9-2.4 5.1-5.2 5.1zm2.2-13.1c0-1.2-1-2.1-2.2-2.1h-.2c-1.2 0-2.2.9-2.2 2.1v8c0 1.2 1 2.1 2.2 2.1h.2c1.2 0 2.2-.9 2.2-2.1v-8zM54 61.4h-.2c-2.8 0-5.2-2.3-5.2-5.2V44.8c0-1 .7-1.5 1.5-1.5.7 0 1.5.5 1.5 1.5v11.5c0 1.2 1 2.2 2.2 2.2h.2c1.2 0 2.2-1 2.2-2.2V44.8c0-1 .7-1.5 1.5-1.5s1.5.5 1.5 1.5v11.5c0 2.8-2.3 5.1-5.2 5.1zM69.8 46.4h-2.1v13.5c0 1-.7 1.5-1.5 1.5-.7 0-1.5-.5-1.5-1.5V46.4h-2.1c-1 0-1.5-.7-1.5-1.5 0-.7.5-1.5 1.5-1.5h7.1c1 0 1.5.7 1.5 1.5.1.7-.4 1.5-1.4 1.5zM83.7 61.2H77c-1 0-1.5-.9-1.5-1.8 0-.3.1-.6.2-.9l5.9-9.4c.3-.5.3-.8.3-1.2v-.2c0-.8-.7-1.5-1.5-1.5h-.1c-.9 0-1.5.7-1.5 1.5v.3c0 1-.8 1.5-1.5 1.5s-1.5-.5-1.5-1.5v-.4c0-2.5 2-4.3 4.5-4.3h.1c2.4 0 4.5 1.8 4.5 4.3v.3c0 1-.4 1.8-.9 2.7l-4.7 7.7h4.5c1 0 1.5.7 1.5 1.5-.1.7-.6 1.4-1.6 1.4zM95.5 57.7h-.6v2.2c0 1-.7 1.5-1.5 1.5s-1.4-.5-1.4-1.5v-2.2h-4.1c-1 0-1.7-.6-1.7-1.6 0-.3.1-.6.2-.8l4.8-11.2c.3-.6.8-.9 1.3-.9.8 0 1.5.6 1.5 1.4 0 .2 0 .4-.1.6l-4.3 9.4H92v-1.5c0-1 .7-1.5 1.5-1.5s1.5.5 1.5 1.5v1.5h.6c1 0 1.5.7 1.5 1.5s-.6 1.6-1.6 1.6zM16.3 14.6l-1.7 5.5h3.3zM54.7 24.3h.2c1.2 0 2.2-.9 2.2-2.1v-8c0-1.2-1-2.1-2.2-2.1h-.2c-1.2 0-2.2.9-2.2 2.1v8c0 1.2 1 2.1 2.2 2.1z"/><path class="st0" d="M0 0v70.7h123.3c10.1 0 18.4-8.2 18.4-18.3V0H0zm49.5 14.2c0-2.9 2.3-5.1 5.2-5.1h.2c2.9 0 5.2 2.2 5.2 5.1v8c0 2.9-2.3 5.1-5.2 5.1h-.2c-2.8 0-5.2-2.2-5.2-5.1v-8zm-10.4-5h7.1c1 0 1.5.7 1.5 1.5 0 .7-.5 1.5-1.5 1.5h-2.1v13.5c0 1-.7 1.5-1.5 1.5-.7 0-1.5-.5-1.5-1.5V12.2H39c-1 0-1.5-.8-1.5-1.5.1-.7.6-1.5 1.6-1.5zm-14.3 1.4c0-1 .7-1.5 1.5-1.5.7 0 1.5.5 1.5 1.5v11.5c0 1.2 1 2.2 2.2 2.2h.2c1.2 0 2.2-1 2.2-2.2V10.6c0-1 .7-1.5 1.5-1.5.7 0 1.5.5 1.5 1.5v11.5c0 2.8-2.3 5.2-5.2 5.2H30c-2.8 0-5.2-2.3-5.2-5.2V10.6zM9.9 25.3l4.7-14.9c.4-1.2 1-1.3 1.7-1.3.6 0 1.3.1 1.7 1.3l4.7 14.9c.1.2.1.3.1.5 0 .9-.8 1.4-1.5 1.4-.6 0-1.2-.3-1.4-1.1l-1-3.1h-5.1l-1 3.1c-.2.7-.8 1.1-1.4 1.1-.8 0-1.5-.6-1.5-1.4-.1-.2-.1-.3 0-.5zm129.6 27.2c0 8.7-7.2 16-16.2 16H2.2V35.3h137.3v17.2z"/></svg>
